<?xml version="1.0" encoding="UTF-8" standalone="no"?>
<svg
   xmlns:dc="http://purl.org/dc/elements/1.1/"
   xmlns:cc="http://creativecommons.org/ns#"
   xmlns:rdf="http://www.w3.org/1999/02/22-rdf-syntax-ns#"
   xmlns:svg="http://www.w3.org/2000/svg"
   xmlns="http://www.w3.org/2000/svg"
   xmlns:sodipodi="http://sodipodi.sourceforge.net/DTD/sodipodi-0.dtd"
   xmlns:inkscape="http://www.inkscape.org/namespaces/inkscape"
   class="thumb"
   width="1000"
   height="320"
   viewBox="0 0 600 192"
   id="svg3336"
   version="1.1"
   inkscape:version="0.91 r13725"
   sodipodi:docname="logo-landscape.svg"
   inkscape:export-filename="C:\Users\marco\iCloudDrive\Doktorat\Polypheny\Logo\logo-landscape.png"
   inkscape:export-xdpi="450"
   inkscape:export-ydpi="450">
  <metadata
     id="metadata3445">
    <rdf:RDF>
      <cc:Work
         rdf:about="">
        <dc:format>image/svg+xml</dc:format>
        <dc:type
           rdf:resource="http://purl.org/dc/dcmitype/StillImage" />
        <dc:title></dc:title>
      </cc:Work>
    </rdf:RDF>
  </metadata>
  <sodipodi:namedview
     pagecolor="#ffffff"
     bordercolor="#666666"
     borderopacity="1"
     objecttolerance="10"
     gridtolerance="10"
     guidetolerance="10"
     inkscape:pageopacity="0"
     inkscape:pageshadow="2"
     inkscape:window-width="3440"
     inkscape:window-height="1377"
     id="namedview3443"
     showgrid="false"
     inkscape:zoom="1.70837"
     inkscape:cx="645.24054"
     inkscape:cy="187.91772"
     inkscape:window-x="-8"
     inkscape:window-y="-8"
     inkscape:window-maximized="1"
     inkscape:current-layer="g3342" />
  <defs
     id="defs3338">
    <style
       type="text/css"
       id="style3340" />
  </defs>
  <g
     transform="matrix(1.2344,0,0,1.2344,-67.4344,-261.25421)"
     id="g3342">
    <g
       transform="matrix(-1.2856,0.0224,-0.0224,-1.2856,185.74131,367.52133)"
       id="g3344">
      <svg
         width="77.003998"
         height="53.700001"
         viewBox="11.429 23.96 77.004 53.7"
         id="svg3346"
         version="1.1"
         inkscape:version="0.91 r13725">
        <defs
           id="defs3348">
          <linearGradient
             x1="13.267878"
             y1="62.915672"
             x2="67.37957"
             y2="62.915672"
             id="linearGradientSjsn91j434"
             gradientTransform="scale(1.2382537,0.80758892)"
             gradientUnits="userSpaceOnUse">
            <stop
               offset="0%"
               stop-color="#74d14c"
               stop-opacity="0.54"
               id="stop3351" />
            <stop
               offset="100%"
               stop-color="#74d14c"
               stop-opacity="0.54"
               id="stop3353" />
          </linearGradient>
        </defs>
        <g
           id="g3355" />
        <g
           id="g3357" />
        <g
           id="g3359" />
        <g
           id="g3361">
          <path
             d="m 73.232,28.96 c -5.631,0 -10.194,4.567 -10.194,10.197 0,8.74 -4.368,13.108 -13.11,13.108 -8.737,0 -13.111,-4.369 -13.111,-13.108 0,-5.63 -4.563,-10.197 -10.194,-10.197 -5.631,0 -10.194,4.567 -10.194,10.197 0,5.631 4.563,10.198 10.194,10.198 8.742,0 13.111,4.369 13.111,13.111 0,5.631 4.563,10.194 10.195,10.194 5.63,0 10.2,-4.563 10.2,-10.194 0,-8.742 4.368,-13.111 13.104,-13.111 5.637,0 10.2,-4.567 10.2,-10.198 0,-5.63 -4.564,-10.197 -10.201,-10.197 z"
             style="clip-rule:evenodd;fill:url(#linearGradientSjsn91j434);fill-rule:evenodd;stroke:none"
             id="path3363"
             inkscape:connector-curvature="0" />
        </g>
      </svg>
    </g>
    <g
       transform="matrix(1.2858,0,0,1.2858,86.148405,270.24366)"
       id="g3365">
      <svg
         width="77.003998"
         height="53.700001"
         viewBox="11.429 23.96 77.004 53.7"
         id="svg3367"
         version="1.1"
         inkscape:version="0.91 r13725">
        <defs
           id="defs3369">
          <linearGradient
             x1="13.267878"
             y1="62.915672"
             x2="67.37957"
             y2="62.915672"
             id="linearGradientSjsn91j43a"
             gradientTransform="scale(1.2382537,0.80758892)"
             gradientUnits="userSpaceOnUse">
            <stop
               offset="0%"
               stop-color="#61c78c"
               stop-opacity="0.54"
               id="stop3372" />
            <stop
               offset="100%"
               stop-color="#61c78c"
               stop-opacity="0.54"
               id="stop3374" />
          </linearGradient>
        </defs>
        <g
           id="g3376" />
        <g
           id="g3378" />
        <g
           id="g3380" />
        <g
           id="g3382">
          <path
             d="m 73.232,28.96 c -5.631,0 -10.194,4.567 -10.194,10.197 0,8.74 -4.368,13.108 -13.11,13.108 -8.737,0 -13.111,-4.369 -13.111,-13.108 0,-5.63 -4.563,-10.197 -10.194,-10.197 -5.631,0 -10.194,4.567 -10.194,10.197 0,5.631 4.563,10.198 10.194,10.198 8.742,0 13.111,4.369 13.111,13.111 0,5.631 4.563,10.194 10.195,10.194 5.63,0 10.2,-4.563 10.2,-10.194 0,-8.742 4.368,-13.111 13.104,-13.111 5.637,0 10.2,-4.567 10.2,-10.198 0,-5.63 -4.564,-10.197 -10.201,-10.197 z"
             style="clip-rule:evenodd;fill:url(#linearGradientSjsn91j43a);fill-rule:evenodd;stroke:none"
             id="path3384"
             inkscape:connector-curvature="0" />
        </g>
      </svg>
    </g>
    <g
       transform="matrix(0.0449,1.285,-1.285,0.0449,120.97641,209.65528)"
       id="g3386">
      <svg
         width="77.003998"
         height="53.700001"
         viewBox="11.429 23.96 77.004 53.7"
         id="svg3388"
         version="1.1"
         inkscape:version="0.91 r13725">
        <defs
           id="defs3390">
          <linearGradient
             x1="13.267878"
             y1="62.915672"
             x2="67.37957"
             y2="62.915672"
             id="linearGradientSjsn91j43g"
             gradientTransform="scale(1.2382537,0.80758892)"
             gradientUnits="userSpaceOnUse">
            <stop
               offset="0%"
               stop-color="#33b5cc"
               stop-opacity="0.53"
               id="stop3393" />
            <stop
               offset="100%"
               stop-color="#33b5cc"
               stop-opacity="0.53"
               id="stop3395" />
          </linearGradient>
        </defs>
        <g
           id="g3397" />
        <g
           id="g3399" />
        <g
           id="g3401" />
        <g
           id="g3403">
          <path
             d="m 73.232,28.96 c -5.631,0 -10.194,4.567 -10.194,10.197 0,8.74 -4.368,13.108 -13.11,13.108 -8.737,0 -13.111,-4.369 -13.111,-13.108 0,-5.63 -4.563,-10.197 -10.194,-10.197 -5.631,0 -10.194,4.567 -10.194,10.197 0,5.631 4.563,10.198 10.194,10.198 8.742,0 13.111,4.369 13.111,13.111 0,5.631 4.563,10.194 10.195,10.194 5.63,0 10.2,-4.563 10.2,-10.194 0,-8.742 4.368,-13.111 13.104,-13.111 5.637,0 10.2,-4.567 10.2,-10.198 0,-5.63 -4.564,-10.197 -10.201,-10.197 z"
             style="clip-rule:evenodd;fill:url(#linearGradientSjsn91j43g);fill-rule:evenodd;stroke:none"
             id="path3405"
             inkscape:connector-curvature="0" />
        </g>
      </svg>
    </g>
    <g
       transform="matrix(0,1.2858,-1.2858,0,124.72471,269.81416)"
       id="g3407">
      <svg
         width="77.003998"
         height="53.700001"
         viewBox="11.429 23.96 77.004 53.7"
         id="svg3409"
         version="1.1"
         inkscape:version="0.91 r13725">
        <defs
           id="defs3411">
          <linearGradient
             x1="13.267878"
             y1="62.915672"
             x2="67.37957"
             y2="62.915672"
             id="linearGradientSjsn91j43m"
             gradientTransform="scale(1.2382537,0.80758892)"
             gradientUnits="userSpaceOnUse">
            <stop
               offset="0%"
               stop-color="#5accc2"
               stop-opacity="0.53"
               id="stop3414" />
            <stop
               offset="100%"
               stop-color="#5accc2"
               stop-opacity="0.53"
               id="stop3416" />
          </linearGradient>
        </defs>
        <g
           id="g3418" />
        <g
           id="g3420" />
        <g
           id="g3422" />
        <g
           id="g3424">
          <path
             d="m 73.232,28.96 c -5.631,0 -10.194,4.567 -10.194,10.197 0,8.74 -4.368,13.108 -13.11,13.108 -8.737,0 -13.111,-4.369 -13.111,-13.108 0,-5.63 -4.563,-10.197 -10.194,-10.197 -5.631,0 -10.194,4.567 -10.194,10.197 0,5.631 4.563,10.198 10.194,10.198 8.742,0 13.111,4.369 13.111,13.111 0,5.631 4.563,10.194 10.195,10.194 5.63,0 10.2,-4.563 10.2,-10.194 0,-8.742 4.368,-13.111 13.104,-13.111 5.637,0 10.2,-4.567 10.2,-10.198 0,-5.63 -4.564,-10.197 -10.201,-10.197 z"
             style="clip-rule:evenodd;fill:url(#linearGradientSjsn91j43m);fill-rule:evenodd;stroke:none"
             id="path3426"
             inkscape:connector-curvature="0" />
        </g>
      </svg>
    </g>
    <g
       transform="matrix(0.8167,0,0,0.8167,147.47393,228.62738)"
       id="g3428">
      <svg
         width="545.41016"
         height="196"
         style="overflow:visible"
         id="svg3430"
         version="1.1"
         inkscape:version="0.91 r13725">
        <defs
           id="defs3432">
          <linearGradient
             x1="3.1459751"
             y1="-52.026474"
             x2="203.40186"
             y2="-52.026474"
             id="linearGradientSjsn91j43u"
             gradientTransform="matrix(2.0025587,0,0,0.49936114,66.657756,0)"
             gradientUnits="userSpaceOnUse">
            <stop
               offset="0%"
               stop-color="#3a3a3a"
               id="stop3435" />
            <stop
               offset="100%"
               stop-color="#3a3a3a"
               id="stop3437" />
          </linearGradient>
        </defs>
        <g
           transform="translate(0,102)"
           id="g3439">
          <path
             d="m 111.86778,-49.41 0,0 c 0,7.58 -1.91,13.396667 -5.73001,17.45 -3.82668,4.053333 -9.353351,6.08 -16.580018,6.08 l 0,0 -3.32,0 0,25.88 -13.279998,0 0,-71.39 18.109998,0 c 13.866678,0 20.800028,7.326667 20.800028,21.98 z m -25.630028,-10.5 0,22.51 2.54,0 c 3.253333,0 5.676667,-0.896667 7.27,-2.69 1.6,-1.786667 2.4,-4.716667 2.4,-8.79 l 0,0 c 0,-3.74 -0.733333,-6.513333 -2.2,-8.32 -1.466667,-1.806667 -3.73,-2.71 -6.79,-2.71 l 0,0 z m 74.120538,32.62 0,0 c 0,8.913333 -1.88667,15.853333 -5.66001,20.82 -3.78001,4.9666667 -8.95669,7.45 -15.53004,7.45 l 0,0 c -4.16668,0 -7.84669,-1.14 -11.04003,-3.42 -3.18667,-2.28 -5.64335,-5.56 -7.37002,-9.84 -1.72667,-4.28 -2.59,-9.283333 -2.59,-15.01 l 0,0 c 0,-8.826667 1.87333,-15.72 5.62001,-20.68 3.74001,-4.966667 8.93002,-7.45 15.57004,-7.45 l 0,0 c 6.41335,0 11.5167,2.53 15.31004,7.59 3.79334,5.066667 5.69001,11.913333 5.69001,20.54 z m -28.91007,0 0,0 c 0,5.66 0.62,9.94 1.86,12.84 1.24001,2.893333 3.22668,4.34 5.96002,4.34 l 0,0 c 5.20668,0 7.81002,-5.726667 7.81002,-17.18 l 0,0 c 0,-5.7 -0.62667,-9.956667 -1.88001,-12.77 -1.25333,-2.82 -3.23,-4.23 -5.93001,-4.23 l 0,0 c -2.73334,0 -4.72001,1.41 -5.96002,4.23 -1.24,2.813333 -1.86,7.07 -1.86,12.77 z m 51.03415,-48.69 0,75.98 -12.99,0 0,-75.98 z m 21.47696,76.86 -16.11,-55.27 13.48,0 7.52,30.71 c 0.74666,2.733333 1.34666,6.556667 1.8,11.47 l 0,0 0.3,0 c 0.0267,-0.78 0.17333,-2.17 0.44,-4.17 0.26,-2 0.47,-3.57 0.63,-4.71 0.16,-1.14 2.40666,-12.24 6.74,-33.3 l 0,0 13.67,0 -15.58,58.3 c -1.88667,7.16 -4.39334,12.303333 -7.52,15.43 -3.12,3.12 -7.28667,4.68 -12.5,4.68 l 0,0 c -2.56667,0 -4.86,-0.276667 -6.88,-0.83 l 0,0 0,-10.89 c 1.33333,0.393333 2.83,0.59 4.49,0.59 l 0,0 c 4.36,0 7.22666,-2.863333 8.6,-8.59 l 0,0 z m 58.26007,0.1 0,0 c -2.34666,0 -4.42333,-0.53 -6.23,-1.59 -1.80666,-1.06 -3.49,-2.9233333 -5.05,-5.59 l 0,0 -0.69,0 c 0.52,4.4266667 0.78,7.09666667 0.78,8.01 l 0,0 0,22.21 -13.08,0 0,-78.41 10.06,0 2.24,7.08 0.59,0 c 2.7,-5.406667 6.62334,-8.11 11.77,-8.11 l 0,0 c 4.94667,0 8.82,2.45 11.62,7.35 2.8,4.9 4.2,11.826667 4.2,20.78 l 0,0 c 0,8.82 -1.45,15.736667 -4.35,20.75 -2.9,5.0133333 -6.85333,7.52 -11.86,7.52 z m -4.01,-45.36 0,0 c -2.54,0 -4.37,1.18 -5.49,3.54 -1.12666,2.36 -1.72,6.273333 -1.78,11.74 l 0,0 0,1.71 c 0,5.986667 0.56667,10.346667 1.7,13.08 1.14,2.733333 3.03,4.1 5.67,4.1 l 0,0 c 4.55334,0 6.83,-5.76 6.83,-17.28 l 0,0 c 0,-5.666667 -0.56,-9.9 -1.68,-12.7 -1.12,-2.793333 -2.87,-4.19 -5.25,-4.19 z M 327.73878,0 l -13.08,0 0,-32.42 c 0,-7.973333 -2.00333,-11.96 -6.01,-11.96 l 0,0 c -2.99333,0 -5.09333,1.57 -6.3,4.71 -1.2,3.14 -1.8,7.656667 -1.8,13.55 l 0,0 0,26.12 -12.99,0 0,-75.98 12.99,0 0,16.9 c 0,2.18 -0.19667,6.07 -0.59,11.67 l 0,0 0.68,0 c 2.60667,-5.34 6.61333,-8.01 12.02,-8.01 l 0,0 c 4.98,0 8.73667,1.683333 11.27,5.05 2.54,3.373333 3.81,8.33 3.81,14.87 l 0,0 z m 30.57359,0.98 0,0 c -6.80666,0 -12.17,-2.4166667 -16.09,-7.25 -3.92666,-4.84 -5.89,-11.686667 -5.89,-20.54 l 0,0 c 0,-8.98 1.77667,-15.993333 5.33,-21.04 3.54667,-5.046667 8.49334,-7.57 14.84,-7.57 l 0,0 c 5.92667,0 10.59667,2.156667 14.01,6.47 3.42,4.313333 5.13,10.36 5.13,18.14 l 0,0 0,6.93 -26.12,0 c 0.0933,4.853333 1.08667,8.46 2.98,10.82 1.88667,2.36 4.49,3.54 7.81,3.54 l 0,0 c 4.23334,0 8.56334,-1.32 12.99,-3.96 l 0,0 0,10.7 c -4.16666,2.50666667 -9.16333,3.76 -14.99,3.76 z m -1.91,-46.39 0,0 c -1.85333,0 -3.38333,0.983333 -4.59,2.95 -1.2,1.973333 -1.9,5.026667 -2.1,9.16 l 0,0 13.19,0 c -0.0667,-3.973333 -0.67,-6.983333 -1.81,-9.03 -1.14,-2.053333 -2.70333,-3.08 -4.69,-3.08 z m 68.0161,45.41 -13.08,0 0,-32.42 c 0,-3.94 -0.47334,-6.92 -1.42,-8.94 -0.94,-2.013333 -2.47,-3.02 -4.59,-3.02 l 0,0 c -2.8,0 -4.85,1.39 -6.15,4.17 -1.3,2.78 -1.95,7.476667 -1.95,14.09 l 0,0 0,26.12 -12.99,0 0,-54.39 10.3,0 1.56,6.98 0.83,0 c 1.17333,-2.506667 2.85,-4.47 5.03,-5.89 2.18,-1.413333 4.73666,-2.12 7.67,-2.12 l 0,0 c 4.94666,0 8.65,1.693333 11.11,5.08 2.45333,3.386667 3.68,8.333333 3.68,14.84 l 0,0 z m 21.09359,0.88 -16.11,-55.27 13.48,0 7.52,30.71 c 0.74667,2.733333 1.34667,6.556667 1.8,11.47 l 0,0 0.3,0 c 0.0267,-0.78 0.17333,-2.17 0.44,-4.17 0.26,-2 0.47,-3.57 0.63,-4.71 0.16,-1.14 2.40667,-12.24 6.74,-33.3 l 0,0 13.67,0 -15.58,58.3 c -1.88667,7.16 -4.39333,12.303333 -7.52,15.43 -3.12,3.12 -7.28667,4.68 -12.5,4.68 l 0,0 c -2.56667,0 -4.86,-0.276667 -6.88,-0.83 l 0,0 0,-10.89 c 1.33333,0.393333 2.83,0.59 4.49,0.59 l 0,0 c 4.36,0 7.22667,-2.863333 8.6,-8.59 l 0,0 z"
             data-textpath="Polypheny-DB"
             data-text-anchor="middle"
             data-font-size="100"
             data-letterspacing="0"
             data-side="left"
             data-offset="0.5"
             data-dx="0"
             data-dy="0"
             data-xmlspace="preserve"
             data-href=""
             data-font="Open Sans Condensed"
             data-font-src="/Content/clientfonts/opensanscondensed-bold.woff"
             data-font-scale="contain"
             data-x="0"
             data-y="0"
             id="path3441"
             inkscape:connector-curvature="0"
             style="fill:url(#linearGradientSjsn91j43u)"
             sodipodi:nodetypes="cccccccccscccscccscccccccccsccccccccccccccccccccccccccccccccsccccsccccccccccccscccccccccccccsccsccccccscccccccccscccccccccscccccccccccccccccccccccccccccccccccccccscccscccccccccccccccccccccccsccccscccccccccc" />
        </g>
      </svg>
    </g>
  </g>
</svg>
