<?xml version="1.0" encoding="utf-8"?>
<svg version="1.1"
   id="Ebene_1" xmlns:inkscape="http://www.inkscape.org/namespaces/inkscape" xmlns:ns1="http://www.inkscape.org/namespaces/inkscape" xmlns:sketch="http://www.bohemiancoding.com/sketch/ns" xmlns:sodipodi="http://sodipodi.sourceforge.net/DTD/sodipodi-0.dtd"
   xmlns="http://www.w3.org/2000/svg" xmlns:xlink="http://www.w3.org/1999/xlink" x="0px" y="0px" viewBox="0 0 1500 500"
   style="enable-background:new 0 0 1500 500;" xml:space="preserve">
<style type="text/css">
  .st0{fill:url(#SVGID_1_);}
  .st1{fill:url(#SVGID_2_);}
  .st2{fill:url(#SVGID_3_);}
  .st3{fill:url(#SVGID_4_);}
  .st4{fill:url(#SVGID_5_);}
</style>
<g transform="matrix(1.2344,0,0,1.2344,-67.4344,146.7458)">
  <g transform="matrix(-1.2856,0.0224,-0.0224,-1.2856,363.59,158.2043)">
    <g>

        <linearGradient id="SVGID_1_" gradientUnits="userSpaceOnUse" x1="-140.1889" y1="-37.3187" x2="-139.1889" y2="-37.3187" gradientTransform="matrix(-177.2194 -2.0139 -3.0878 115.5825 -24912.3574 4075.1108)">
        <stop  offset="0" style="stop-color:#74D14C;stop-opacity:0.54"/>
        <stop  offset="1" style="stop-color:#74D14C;stop-opacity:0.54"/>
      </linearGradient>
      <path class="st0" d="M141.7,7.6c-9.4,0-17,7.6-17,17c0,14.6-7.3,21.8-21.8,21.8c-14.6,0-21.9-7.3-21.9-21.8c0-9.4-7.6-17-17-17
        s-17,7.6-17,17c0,9.4,7.6,17,17,17c14.6,0,21.9,7.3,21.9,21.9c0,9.4,7.6,17,17,17c9.4,0,17-7.6,17-17c0-14.6,7.3-21.9,21.8-21.9
        c9.4,0,17-7.6,17-17C158.7,15.2,151.1,7.6,141.7,7.6z"/>
    </g>
  </g>
  <g transform="matrix(1.2858,0,0,1.2858,263.9971,60.9266)">
    <g>

        <linearGradient id="SVGID_2_" gradientUnits="userSpaceOnUse" x1="212.1029" y1="113.1155" x2="213.1029" y2="113.1155" gradientTransform="matrix(177.247 0 0 -115.6004 -37669.4258 13086.9893)">
        <stop  offset="0" style="stop-color:#61C78C;stop-opacity:0.54"/>
        <stop  offset="1" style="stop-color:#61C78C;stop-opacity:0.54"/>
      </linearGradient>
      <path class="st1" d="M19.8-25.6c-9.4,0-17,7.6-17,17C2.9,5.9-4.4,13.2-19,13.2c-14.6,0-21.9-7.3-21.9-21.8c0-9.4-7.6-17-17-17
        s-17,7.6-17,17c0,9.4,7.6,17,17,17c14.6,0,21.9,7.3,21.9,21.9c0,9.4,7.6,17,17,17c9.4,0,17-7.6,17-17C-2,15.6,5.3,8.4,19.8,8.4
        c9.4,0,17-7.6,17-17C36.8-18,29.2-25.6,19.8-25.6z"/>
    </g>
  </g>
  <g transform="matrix(0.0449,1.285,-1.285,0.0449,298.8251,0.3381)">
    <g>

        <linearGradient id="SVGID_3_" gradientUnits="userSpaceOnUse" x1="160.7326" y1="-181.684" x2="161.7326" y2="-181.684" gradientTransform="matrix(6.1894 -115.5285 -177.1367 -4.0368 -33221.6914 17936.6426)">
        <stop  offset="0" style="stop-color:#33B5CC;stop-opacity:0.53"/>
        <stop  offset="1" style="stop-color:#33B5CC;stop-opacity:0.53"/>
      </linearGradient>
      <path class="st2" d="M50.7,64.4c-9.4,0-17,7.6-17,17c0,14.6-7.3,21.8-21.9,21.8C-2.7,103.3-10,96-10,81.4c0-9.4-7.6-17-17-17
        s-17,7.6-17,17c0,9.4,7.6,17,17,17c14.6,0,21.9,7.3,21.9,21.9c0,9.4,7.6,17,17,17c9.4,0,17-7.6,17-17c0-14.6,7.3-21.9,21.8-21.9
        c9.4,0,17-7.6,17-17C67.7,72.1,60.1,64.4,50.7,64.4z"/>
    </g>
  </g>
  <g transform="matrix(0,1.2858,-1.2858,0,302.5734,60.4971)">
    <g>

        <linearGradient id="SVGID_4_" gradientUnits="userSpaceOnUse" x1="107.4544" y1="-184.3761" x2="108.4544" y2="-184.3761" gradientTransform="matrix(0 -115.6004 -177.247 0 -32675.7676 12515.2793)">
        <stop  offset="0" style="stop-color:#5ACCC2;stop-opacity:0.53"/>
        <stop  offset="1" style="stop-color:#5ACCC2;stop-opacity:0.53"/>
      </linearGradient>
      <path class="st3" d="M99,57.1c-9.4,0-17,7.6-17,17c0,14.6-7.3,21.8-21.9,21.8c-14.6,0-21.9-7.3-21.9-21.8c0-9.4-7.6-17-17-17
        s-17,7.6-17,17c0,9.4,7.6,17,17,17c14.6,0,21.9,7.3,21.9,21.9c0,9.4,7.6,17,17,17c9.4,0,17-7.6,17-17c0-14.6,7.3-21.9,21.8-21.9
        c9.4,0,17-7.6,17-17C116,64.7,108.4,57.1,99,57.1z"/>
    </g>
  </g>
  <g transform="matrix(0.8167,0,0,0.8167,73.7902,137.9495)">
    <g transform="matrix(1,0,0,1,0,102)">

        <linearGradient id="SVGID_5_" gradientUnits="userSpaceOnUse" x1="571.4279" y1="-17.3588" x2="572.4279" y2="-17.3588" gradientTransform="matrix(900.0062 0 0 -168.0224 -513909.8438 -3059.8542)">
        <stop  offset="0" style="stop-color:#3A3A3A"/>
        <stop  offset="1" style="stop-color:#3A3A3A"/>
      </linearGradient>
      <path class="st4" d="M443.7-182.2L443.7-182.2c0,12.6-3.2,22.3-9.5,29.1c-6.4,6.8-15.6,10.1-27.6,10.1l0,0H401v43.1h-22.1v-119
        H409C432.2-218.9,443.7-206.7,443.7-182.2z M401-199.7v37.5h4.2c5.4,0,9.5-1.5,12.1-4.5c2.7-3,4-7.9,4-14.7l0,0
        c0-6.2-1.2-10.9-3.7-13.9c-2.4-3-6.2-4.5-11.3-4.5l0,0H401z M524.5-145.4L524.5-145.4c0,14.9-3.1,26.4-9.4,34.7
        c-6.3,8.3-14.9,12.4-25.9,12.4l0,0c-6.9,0-13.1-1.9-18.4-5.7c-5.3-3.8-9.4-9.3-12.3-16.4s-4.3-15.5-4.3-25l0,0
        c0-14.7,3.1-26.2,9.4-34.5c6.2-8.3,14.9-12.4,25.9-12.4l0,0c10.7,0,19.2,4.2,25.5,12.6C521.4-171.2,524.5-159.7,524.5-145.4z
         M476.3-145.4L476.3-145.4c0,9.4,1,16.6,3.1,21.4c2.1,4.8,5.4,7.2,9.9,7.2l0,0c8.7,0,13-9.5,13-28.6l0,0c0-9.5-1-16.6-3.1-21.3
        c-2.1-4.7-5.4-7.1-9.9-7.1l0,0c-4.6,0-7.9,2.3-9.9,7.1C477.4-162,476.3-154.9,476.3-145.4z M561.4-226.5v126.6h-21.7v-126.6
        H561.4z M597.2-98.4l-26.9-92.1h22.5l12.5,51.2c1.2,4.6,2.2,10.9,3,19.1l0,0h0.5c0-1.3,0.3-3.6,0.7-7c0.4-3.3,0.8-5.9,1-7.8
        c0.3-1.9,4-20.4,11.2-55.5l0,0h22.8l-26,97.2c-3.1,11.9-7.3,20.5-12.5,25.7c-5.2,5.2-12.1,7.8-20.8,7.8l0,0
        c-4.3,0-8.1-0.5-11.5-1.4l0,0v-18.1c2.2,0.7,4.7,1,7.5,1l0,0c7.3,0,12-4.8,14.3-14.3l0,0L597.2-98.4z M694.3-98.3L694.3-98.3
        c-3.9,0-7.4-0.9-10.4-2.7c-3-1.8-5.8-4.9-8.4-9.3l0,0h-1.2c0.9,7.4,1.3,11.8,1.3,13.3l0,0v37h-21.8v-130.7h16.8l3.7,11.8h1
        c4.5-9,11-13.5,19.6-13.5l0,0c8.2,0,14.7,4.1,19.4,12.2c4.7,8.2,7,19.7,7,34.6l0,0c0,14.7-2.4,26.2-7.2,34.6
        S702.6-98.3,694.3-98.3z M687.6-173.9L687.6-173.9c-4.2,0-7.3,2-9.2,5.9c-1.9,3.9-2.9,10.5-3,19.6l0,0v2.9
        c0,10,0.9,17.2,2.8,21.8c1.9,4.6,5,6.8,9.5,6.8l0,0c7.6,0,11.4-9.6,11.4-28.8l0,0c0-9.4-0.9-16.5-2.8-21.2
        C694.5-171.5,691.6-173.9,687.6-173.9z M803.5-99.9h-21.8v-54c0-13.3-3.3-19.9-10-19.9l0,0c-5,0-8.5,2.6-10.5,7.9
        c-2,5.2-3,12.8-3,22.6l0,0v43.5h-21.6v-126.6h21.6v28.2c0,3.6-0.3,10.1-1,19.5l0,0h1.1c4.3-8.9,11-13.4,20-13.4l0,0
        c8.3,0,14.6,2.8,18.8,8.4c4.2,5.6,6.3,13.9,6.3,24.8l0,0V-99.9z M854.5-98.3L854.5-98.3c-11.3,0-20.3-4-26.8-12.1
        c-6.5-8.1-9.8-19.5-9.8-34.2l0,0c0-15,3-26.7,8.9-35.1c5.9-8.4,14.2-12.6,24.7-12.6l0,0c9.9,0,17.7,3.6,23.3,10.8
        c5.7,7.2,8.6,17.3,8.6,30.2l0,0v11.6h-43.5c0.2,8.1,1.8,14.1,5,18c3.1,3.9,7.5,5.9,13,5.9l0,0c7.1,0,14.3-2.2,21.6-6.6l0,0v17.8
        C872.5-100.3,864.2-98.3,854.5-98.3z M851.3-175.6L851.3-175.6c-3.1,0-5.6,1.6-7.7,4.9c-2,3.3-3.2,8.4-3.5,15.3l0,0h22
        c-0.1-6.6-1.1-11.6-3-15.1C857.2-173.9,854.6-175.6,851.3-175.6z M964.6-99.9h-21.8v-54c0-6.6-0.8-11.5-2.4-14.9
        c-1.6-3.4-4.1-5-7.7-5l0,0c-4.7,0-8.1,2.3-10.2,7c-2.2,4.6-3.2,12.5-3.2,23.5l0,0v43.5h-21.7v-90.6h17.2l2.6,11.6h1.4
        c2-4.2,4.8-7.5,8.4-9.8c3.6-2.4,7.9-3.5,12.8-3.5l0,0c8.2,0,14.4,2.8,18.5,8.5c4.1,5.6,6.1,13.9,6.1,24.7l0,0V-99.9z M999.8-98.4
        l-26.8-92.1h22.5l12.5,51.2c1.2,4.6,2.2,10.9,3,19.1l0,0h0.5c0-1.3,0.3-3.6,0.7-7c0.4-3.3,0.8-5.9,1-7.8
        c0.3-1.9,4-20.4,11.2-55.5l0,0h22.8l-26,97.2c-3.1,11.9-7.3,20.5-12.5,25.7c-5.2,5.2-12.1,7.8-20.8,7.8l0,0
        c-4.3,0-8.1-0.5-11.5-1.4l0,0v-18.1c2.2,0.7,4.7,1,7.5,1l0,0c7.3,0,12-4.8,14.3-14.3l0,0L999.8-98.4z M1094-135h-40.9v-19.1h40.9
        V-135z M1186.1-160.5L1186.1-160.5c0,19.6-4,34.7-12,45c-8,10.4-19.5,15.6-34.5,15.6l0,0h-29.1v-119h31.8
        c13.8,0,24.6,5.1,32.3,15.4C1182.2-193.3,1186.1-179,1186.1-160.5z M1163.4-159.9L1163.4-159.9c0-26.6-7.3-39.9-22-39.9l0,0h-8.9
        v80.5h7.2c8.1,0,14-3.4,17.9-10.1S1163.4-146.3,1163.4-159.9z M1203.4-99.9v-119h30.4c12.4,0,21.4,2.4,27,7.2
        c5.6,4.8,8.5,12.4,8.5,22.9l0,0c0,6.9-1.5,12.7-4.5,17.3c-3,4.6-7.1,7.4-12.2,8.4l0,0v0.8c6.7,1.7,11.6,4.8,14.6,9.4
        c3,4.6,4.5,10.7,4.5,18.4l0,0c0,10.8-2.9,19.2-8.7,25.3c-5.8,6.1-13.7,9.2-23.7,9.2l0,0H1203.4z M1224.2-199.7v28.7h10.2
        c4.7,0,7.9-1.2,9.8-3.7c1.9-2.5,2.8-6.2,2.8-11.1l0,0c0-4.9-1.1-8.5-3.2-10.6c-2.2-2.1-5.6-3.2-10.3-3.2l0,0H1224.2z
         M1235.1-152.5h-10.8v33.3h11.2c4.6,0,8-1.4,10.3-4.2c2.2-2.8,3.4-7.2,3.4-13.1l0,0C1249.1-147.2,1244.4-152.5,1235.1-152.5
        L1235.1-152.5z"/>
    </g>
  </g>
</g>
</svg>
