<?xml version="1.0" encoding="utf-8"?>
<svg version="1.1"
   id="Ebene_1" xmlns:inkscape="http://www.inkscape.org/namespaces/inkscape" xmlns:ns1="http://www.inkscape.org/namespaces/inkscape" xmlns:sketch="http://www.bohemiancoding.com/sketch/ns" xmlns:sodipodi="http://sodipodi.sourceforge.net/DTD/sodipodi-0.dtd"
   xmlns="http://www.w3.org/2000/svg" xmlns:xlink="http://www.w3.org/1999/xlink" x="0px" y="0px" viewBox="0 0 500 500"
   style="enable-background:new 0 0 500 500;" xml:space="preserve">
<style type="text/css">
  .st0{fill:url(#SVGID_1_);}
  .st1{fill:url(#SVGID_2_);}
  .st2{fill:url(#SVGID_3_);}
  .st3{fill:url(#SVGID_4_);}
  .st4{display:none;}
  .st5{display:inline;}
  .st6{fill:url(#SVGID_5_);}
</style>
<g transform="matrix(1.2344,0,0,1.2344,-67.4344,146.7458)">
  <g transform="matrix(-1.2856,0.0224,-0.0224,-1.2856,363.59,158.2043)">
    <g>

        <linearGradient id="SVGID_1_" gradientUnits="userSpaceOnUse" x1="176.7058" y1="-31.794" x2="177.7058" y2="-31.794" gradientTransform="matrix(-177.2194 -2.0139 -3.0878 115.5825 31239.2793 4080.5989)">
        <stop  offset="0" style="stop-color:#74D14C;stop-opacity:0.54"/>
        <stop  offset="1" style="stop-color:#74D14C;stop-opacity:0.54"/>
      </linearGradient>
      <path class="st0" d="M116.4,13.5c-9.4,0-17,7.6-17,17c0,14.6-7.3,21.8-21.8,21.8c-14.6,0-21.9-7.3-21.9-21.8c0-9.4-7.6-17-17-17
        s-17,7.6-17,17c0,9.4,7.6,17,17,17c14.6,0,21.9,7.3,21.9,21.9c0,9.4,7.6,17,17,17c9.4,0,17-7.6,17-17c0-14.6,7.3-21.9,21.8-21.9
        c9.4,0,17-7.6,17-17C133.4,21.1,125.8,13.5,116.4,13.5z"/>
    </g>
  </g>
  <g transform="matrix(1.2858,0,0,1.2858,263.9971,60.9266)">
    <g>

        <linearGradient id="SVGID_2_" gradientUnits="userSpaceOnUse" x1="-100.9994" y1="113.17" x2="-99.9994" y2="113.17" gradientTransform="matrix(177.247 0 0 -115.6004 17852.2148 13086.9893)">
        <stop  offset="0" style="stop-color:#61C78C;stop-opacity:0.54"/>
        <stop  offset="1" style="stop-color:#61C78C;stop-opacity:0.54"/>
      </linearGradient>
      <path class="st1" d="M45-31.9c-9.4,0-17,7.6-17,17c0,14.6-7.3,21.8-21.9,21.8c-14.6,0-21.9-7.3-21.9-21.8c0-9.4-7.6-17-17-17
        s-17,7.6-17,17c0,9.4,7.6,17,17,17c14.6,0,21.9,7.3,21.9,21.9c0,9.4,7.6,17,17,17c9.4,0,17-7.6,17-17C23.2,9.3,30.5,2.1,45,2.1
        c9.4,0,17-7.6,17-17C62-24.3,54.4-31.9,45-31.9z"/>
    </g>
  </g>
  <g transform="matrix(0.0449,1.285,-1.285,0.0449,298.8251,0.3381)">
    <g>

        <linearGradient id="SVGID_3_" gradientUnits="userSpaceOnUse" x1="152.6744" y1="133.2209" x2="153.6744" y2="133.2209" gradientTransform="matrix(6.1894 -115.5285 -177.1367 -4.0368 22603.9727 18251.4766)">
        <stop  offset="0" style="stop-color:#33B5CC;stop-opacity:0.53"/>
        <stop  offset="1" style="stop-color:#33B5CC;stop-opacity:0.53"/>
      </linearGradient>
      <path class="st2" d="M45.3,39c-9.4,0-17,7.6-17,17c0,14.6-7.3,21.8-21.9,21.8c-14.6,0-21.9-7.3-21.9-21.8c0-9.4-7.6-17-17-17
        s-17,7.6-17,17c0,9.4,7.6,17,17,17c14.6,0,21.9,7.3,21.9,21.9c0,9.4,7.6,17,17,17c9.4,0,17-7.6,17-17c0-14.6,7.3-21.9,21.8-21.9
        c9.4,0,17-7.6,17-17C62.3,46.6,54.7,39,45.3,39z"/>
    </g>
  </g>
  <g transform="matrix(0,1.2858,-1.2858,0,302.5734,60.4971)">
    <g>

        <linearGradient id="SVGID_4_" gradientUnits="userSpaceOnUse" x1="110.3975" y1="130.6813" x2="111.3975" y2="130.6813" gradientTransform="matrix(0 -115.6004 -177.247 0 23160.8984 12830.3008)">
        <stop  offset="0" style="stop-color:#5ACCC2;stop-opacity:0.53"/>
        <stop  offset="1" style="stop-color:#5ACCC2;stop-opacity:0.53"/>
      </linearGradient>
      <path class="st3" d="M92.7,31.9c-9.4,0-17,7.6-17,17c0,14.6-7.3,21.8-21.8,21.8C39.3,70.7,32,63.4,32,48.9c0-9.4-7.6-17-17-17
        s-17,7.6-17,17c0,9.4,7.6,17,17,17c14.6,0,21.9,7.3,21.9,21.9c0,9.4,7.6,17,17,17c9.4,0,17-7.6,17-17c0-14.6,7.3-21.9,21.8-21.9
        c9.4,0,17-7.6,17-17C109.7,39.5,102.1,31.9,92.7,31.9z"/>
    </g>
  </g>
  <g transform="matrix(0.8167,0,0,0.8167,73.7902,137.9495)" class="st4">
    <g transform="matrix(1,0,0,1,0,102)" class="st5">

        <linearGradient id="SVGID_5_" gradientUnits="userSpaceOnUse" x1="75.346" y1="-18.1298" x2="76.346" y2="-18.1298" gradientTransform="matrix(900.0062 0 0 -168.0224 -68033.7031 -3059.8542)">
        <stop  offset="0" style="stop-color:#3A3A3A"/>
        <stop  offset="1" style="stop-color:#3A3A3A"/>
      </linearGradient>
      <path class="st6" d="M-157-52.7L-157-52.7c0,12.6-3.2,22.3-9.6,29.1c-6.4,6.8-15.6,10.1-27.6,10.1l0,0h-5.5v43.1h-22.1v-119h30.2
        C-168.5-89.3-157-77.1-157-52.7z M-199.7-70.2v37.5h4.2c5.4,0,9.5-1.5,12.1-4.5c2.7-3,4-7.9,4-14.7l0,0c0-6.2-1.2-10.9-3.7-13.9
        s-6.2-4.5-11.3-4.5l0,0H-199.7z M-76.2-15.8L-76.2-15.8c0,14.9-3.1,26.4-9.4,34.7c-6.3,8.3-14.9,12.4-25.9,12.4l0,0
        c-6.9,0-13.1-1.9-18.4-5.7c-5.3-3.8-9.4-9.3-12.3-16.4s-4.3-15.5-4.3-25l0,0c0-14.7,3.1-26.2,9.4-34.5c6.2-8.3,14.9-12.4,26-12.4
        l0,0c10.7,0,19.2,4.2,25.5,12.6C-79.3-41.6-76.2-30.2-76.2-15.8z M-124.4-15.8L-124.4-15.8c0,9.4,1,16.6,3.1,21.4
        c2.1,4.8,5.4,7.2,9.9,7.2l0,0c8.7,0,13-9.5,13-28.6l0,0c0-9.5-1-16.6-3.1-21.3c-2.1-4.7-5.4-7-9.9-7l0,0c-4.6,0-7.9,2.4-9.9,7
        C-123.3-32.4-124.4-25.3-124.4-15.8z M-39.3-97V29.7H-61V-97H-39.3z M-3.5,31.1L-30.4-61h22.5L4.6-9.8c1.2,4.6,2.2,10.9,3,19.1
        l0,0h0.5c0-1.3,0.3-3.6,0.7-6.9C9.3-1,9.7-3.6,9.9-5.5s4-20.4,11.2-55.5l0,0h22.8L18,36.2c-3.1,11.9-7.3,20.5-12.5,25.7
        c-5.2,5.2-12.1,7.8-20.8,7.8l0,0c-4.3,0-8.1-0.5-11.5-1.4l0,0V50.2c2.2,0.7,4.7,1,7.5,1l0,0c7.3,0,12-4.8,14.3-14.3l0,0
        L-3.5,31.1z M93.6,31.3L93.6,31.3c-3.9,0-7.4-0.9-10.4-2.7c-3-1.8-5.8-4.9-8.4-9.3l0,0h-1.1c0.9,7.4,1.3,11.8,1.3,13.4l0,0v37
        H53.1V-61h16.8l3.7,11.8h1c4.5-9,11-13.5,19.6-13.5l0,0c8.2,0,14.7,4.1,19.4,12.2c4.7,8.2,7,19.7,7,34.6l0,0
        c0,14.7-2.4,26.2-7.3,34.6C108.5,27.1,101.9,31.3,93.6,31.3z M86.9-44.3L86.9-44.3c-4.2,0-7.3,2-9.2,5.9
        c-1.9,3.9-2.9,10.5-3,19.6l0,0v2.9c0,10,0.9,17.2,2.8,21.8c1.9,4.6,5,6.8,9.4,6.8l0,0c7.6,0,11.4-9.6,11.4-28.8l0,0
        c0-9.4-0.9-16.5-2.8-21.2C93.8-42,90.9-44.3,86.9-44.3z M202.8,29.7H181v-54c0-13.3-3.3-19.9-10-19.9l0,0c-5,0-8.5,2.6-10.5,7.9
        c-2,5.2-3,12.8-3,22.6l0,0v43.5h-21.6V-97h21.6v28.2c0,3.6-0.3,10.1-1,19.5l0,0h1.1c4.3-8.9,11-13.3,20-13.3l0,0
        c8.3,0,14.6,2.8,18.8,8.4c4.2,5.6,6.3,13.9,6.3,24.8l0,0V29.7z M253.7,31.3L253.7,31.3c-11.3,0-20.3-4-26.8-12.1
        c-6.5-8.1-9.8-19.5-9.8-34.2l0,0c0-15,3-26.7,8.9-35.1c5.9-8.4,14.2-12.6,24.7-12.6l0,0c9.9,0,17.7,3.6,23.4,10.8
        c5.7,7.2,8.6,17.3,8.6,30.2l0,0v11.6h-43.5c0.2,8.1,1.8,14.1,5,18c3.1,3.9,7.5,5.9,13,5.9l0,0c7.1,0,14.3-2.2,21.6-6.6l0,0V25
        C271.8,29.2,263.5,31.3,253.7,31.3z M250.6-46L250.6-46c-3.1,0-5.6,1.6-7.6,4.9c-2,3.3-3.2,8.4-3.5,15.3l0,0h22
        c-0.1-6.6-1.1-11.6-3-15.1C256.5-44.3,253.9-46,250.6-46z M363.9,29.7h-21.8v-54c0-6.6-0.8-11.5-2.4-14.9c-1.6-3.4-4.1-5-7.7-5
        l0,0c-4.7,0-8.1,2.3-10.2,7c-2.2,4.6-3.2,12.5-3.2,23.5l0,0v43.5H297V-61h17.2l2.6,11.6h1.4c2-4.2,4.8-7.5,8.4-9.8
        c3.6-2.4,7.9-3.5,12.8-3.5l0,0c8.2,0,14.4,2.8,18.5,8.5c4.1,5.6,6.1,13.9,6.1,24.7l0,0V29.7z M399.1,31.1L372.2-61h22.5
        l12.5,51.2c1.2,4.6,2.2,10.9,3,19.1l0,0h0.5c0-1.3,0.3-3.6,0.7-6.9c0.4-3.3,0.8-5.9,1.1-7.9c0.3-1.9,4-20.4,11.2-55.5l0,0h22.8
        l-26,97.2c-3.1,11.9-7.3,20.5-12.5,25.7c-5.2,5.2-12.1,7.8-20.8,7.8l0,0c-4.3,0-8.1-0.5-11.5-1.4l0,0V50.2c2.2,0.7,4.7,1,7.5,1
        l0,0c7.3,0,12-4.8,14.3-14.3l0,0L399.1,31.1z M493.3-5.5h-40.9v-19h40.9V-5.5z M585.4-31L585.4-31c0,19.6-4,34.7-12,45
        c-8,10.4-19.5,15.6-34.6,15.6l0,0h-29.1v-119h31.8c13.8,0,24.6,5.1,32.3,15.3C581.5-63.7,585.4-49.4,585.4-31z M562.7-30.3
        L562.7-30.3c0-26.6-7.3-39.9-22-39.9l0,0h-8.9v80.5h7.2c8.1,0,14-3.4,17.9-10.1S562.7-16.8,562.7-30.3z M602.7,29.7v-119h30.4
        c12.4,0,21.4,2.4,27,7.2c5.6,4.8,8.5,12.4,8.5,22.9l0,0c0,6.9-1.5,12.7-4.5,17.3c-3,4.6-7.1,7.4-12.2,8.4l0,0v0.8
        c6.7,1.7,11.6,4.8,14.6,9.4c3,4.6,4.5,10.7,4.5,18.4l0,0c0,10.8-2.9,19.2-8.7,25.4c-5.8,6.1-13.7,9.1-23.7,9.1l0,0H602.7z
         M623.5-70.2v28.7h10.2c4.7,0,7.9-1.2,9.8-3.7c1.9-2.5,2.9-6.2,2.9-11.2l0,0c0-4.9-1.1-8.5-3.2-10.6c-2.2-2.1-5.6-3.2-10.3-3.2
        l0,0H623.5z M634.4-23h-10.8v33.3h11.2c4.6,0,8-1.4,10.3-4.2c2.2-2.8,3.4-7.2,3.4-13.1l0,0C648.4-17.7,643.7-23,634.4-23
        L634.4-23z"/>
    </g>
  </g>
</g>
</svg>
