<?xml version="1.0" encoding="UTF-8" standalone="no"?>
<svg
        xmlns:dc="http://purl.org/dc/elements/1.1/"
        xmlns:cc="http://creativecommons.org/ns#"
        xmlns:rdf="http://www.w3.org/1999/02/22-rdf-syntax-ns#"
        xmlns="http://www.w3.org/2000/svg"
        xmlns:sodipodi="http://sodipodi.sourceforge.net/DTD/sodipodi-0.dtd"
        xmlns:inkscape="http://www.inkscape.org/namespaces/inkscape"
        class="thumb"
        width="1000"
        height="1000"
        viewBox="0,0,600,600"
        id="svg107">
    <metadata
            id="metadata111">
        <rdf:RDF>
            <cc:Work
                    rdf:about="">
                <dc:format>image/svg+xml</dc:format>
                <dc:type
                        rdf:resource="http://purl.org/dc/dcmitype/StillImage"/>
                <dc:title></dc:title>
            </cc:Work>
        </rdf:RDF>
    </metadata>
    <sodipodi:namedview
            pagecolor="#ffffff"
            bordercolor="#666666"
            borderopacity="1"
            objecttolerance="10"
            gridtolerance="10"
            guidetolerance="10"
            inkscape:pageopacity="0"
            inkscape:pageshadow="2"
            inkscape:window-width="3840"
            inkscape:window-height="1537"
            id="namedview109"
            showgrid="false"
            inkscape:zoom="0.944"
            inkscape:cx="51.433811"
            inkscape:cy="362.01479"
            inkscape:window-x="2992"
            inkscape:window-y="-8"
            inkscape:window-maximized="1"
            inkscape:current-layer="svg107"/>
    <defs
            id="defs4">
        <style
                type="text/css"
                id="style2"/>
    </defs>
    <g
            transform="matrix(3.4621791,0,0,3.4621791,-728.66384,16.193785)"
            id="g105">
        <g
                transform="matrix(-1.2856,0.0224,-0.0224,-1.2856,363.59,158.2043)"
                id="g25">
            <svg
                    width="77.003998"
                    height="53.700001"
                    viewBox="11.429 23.96 77.004 53.7"
                    id="svg23">
                <defs
                        id="defs11">
                    <linearGradient
                            x1="13.267878"
                            y1="62.915672"
                            x2="67.37957"
                            y2="62.915672"
                            id="linearGradientSjsn91j434"
                            gradientTransform="scale(1.2382537,0.80758892)"
                            gradientUnits="userSpaceOnUse">
                        <stop
                                offset="0%"
                                stop-color="#74d14c"
                                stop-opacity="0.54"
                                id="stop6"/>
                        <stop
                                offset="100%"
                                stop-color="#74d14c"
                                stop-opacity="0.54"
                                id="stop8"/>
                    </linearGradient>
                </defs>
                <g
                        id="g13"/>
                <g
                        id="g15"/>
                <g
                        id="g17"/>
                <g
                        id="g21">
                    <path
                            d="m 73.232,28.96 c -5.631,0 -10.194,4.567 -10.194,10.197 0,8.74 -4.368,13.108 -13.11,13.108 -8.737,0 -13.111,-4.369 -13.111,-13.108 0,-5.63 -4.563,-10.197 -10.194,-10.197 -5.631,0 -10.194,4.567 -10.194,10.197 0,5.631 4.563,10.198 10.194,10.198 8.742,0 13.111,4.369 13.111,13.111 0,5.631 4.563,10.194 10.195,10.194 5.63,0 10.2,-4.563 10.2,-10.194 0,-8.742 4.368,-13.111 13.104,-13.111 5.637,0 10.2,-4.567 10.2,-10.198 0,-5.63 -4.564,-10.197 -10.201,-10.197 z"
                            style="clip-rule:evenodd;fill:url(#linearGradientSjsn91j434);fill-rule:evenodd;stroke:none"
                            id="path19"/>
                </g>
            </svg>
        </g>
        <g
                transform="matrix(1.2858,0,0,1.2858,263.9971,60.9266)"
                id="g46">
            <svg
                    width="77.003998"
                    height="53.700001"
                    viewBox="11.429 23.96 77.004 53.7"
                    id="svg44">
                <defs
                        id="defs32">
                    <linearGradient
                            x1="13.267878"
                            y1="62.915672"
                            x2="67.37957"
                            y2="62.915672"
                            id="linearGradientSjsn91j43a"
                            gradientTransform="scale(1.2382537,0.80758892)"
                            gradientUnits="userSpaceOnUse">
                        <stop
                                offset="0%"
                                stop-color="#61c78c"
                                stop-opacity="0.54"
                                id="stop27"/>
                        <stop
                                offset="100%"
                                stop-color="#61c78c"
                                stop-opacity="0.54"
                                id="stop29"/>
                    </linearGradient>
                </defs>
                <g
                        id="g34"/>
                <g
                        id="g36"/>
                <g
                        id="g38"/>
                <g
                        id="g42">
                    <path
                            d="m 73.232,28.96 c -5.631,0 -10.194,4.567 -10.194,10.197 0,8.74 -4.368,13.108 -13.11,13.108 -8.737,0 -13.111,-4.369 -13.111,-13.108 0,-5.63 -4.563,-10.197 -10.194,-10.197 -5.631,0 -10.194,4.567 -10.194,10.197 0,5.631 4.563,10.198 10.194,10.198 8.742,0 13.111,4.369 13.111,13.111 0,5.631 4.563,10.194 10.195,10.194 5.63,0 10.2,-4.563 10.2,-10.194 0,-8.742 4.368,-13.111 13.104,-13.111 5.637,0 10.2,-4.567 10.2,-10.198 0,-5.63 -4.564,-10.197 -10.201,-10.197 z"
                            style="clip-rule:evenodd;fill:url(#linearGradientSjsn91j43a);fill-rule:evenodd;stroke:none"
                            id="path40"/>
                </g>
            </svg>
        </g>
        <g
                transform="matrix(0.0449,1.285,-1.285,0.0449,298.8251,0.3381)"
                id="g67">
            <svg
                    width="77.003998"
                    height="53.700001"
                    viewBox="11.429 23.96 77.004 53.7"
                    id="svg65">
                <defs
                        id="defs53">
                    <linearGradient
                            x1="13.267878"
                            y1="62.915672"
                            x2="67.37957"
                            y2="62.915672"
                            id="linearGradientSjsn91j43g"
                            gradientTransform="scale(1.2382537,0.80758892)"
                            gradientUnits="userSpaceOnUse">
                        <stop
                                offset="0%"
                                stop-color="#33b5cc"
                                stop-opacity="0.53"
                                id="stop48"/>
                        <stop
                                offset="100%"
                                stop-color="#33b5cc"
                                stop-opacity="0.53"
                                id="stop50"/>
                    </linearGradient>
                </defs>
                <g
                        id="g55"/>
                <g
                        id="g57"/>
                <g
                        id="g59"/>
                <g
                        id="g63">
                    <path
                            d="m 73.232,28.96 c -5.631,0 -10.194,4.567 -10.194,10.197 0,8.74 -4.368,13.108 -13.11,13.108 -8.737,0 -13.111,-4.369 -13.111,-13.108 0,-5.63 -4.563,-10.197 -10.194,-10.197 -5.631,0 -10.194,4.567 -10.194,10.197 0,5.631 4.563,10.198 10.194,10.198 8.742,0 13.111,4.369 13.111,13.111 0,5.631 4.563,10.194 10.195,10.194 5.63,0 10.2,-4.563 10.2,-10.194 0,-8.742 4.368,-13.111 13.104,-13.111 5.637,0 10.2,-4.567 10.2,-10.198 0,-5.63 -4.564,-10.197 -10.201,-10.197 z"
                            style="clip-rule:evenodd;fill:url(#linearGradientSjsn91j43g);fill-rule:evenodd;stroke:none"
                            id="path61"/>
                </g>
            </svg>
        </g>
        <g
                transform="matrix(0,1.2858,-1.2858,0,302.5734,60.4971)"
                id="g88">
            <svg
                    width="77.003998"
                    height="53.700001"
                    viewBox="11.429 23.96 77.004 53.7"
                    id="svg86">
                <defs
                        id="defs74">
                    <linearGradient
                            x1="13.267878"
                            y1="62.915672"
                            x2="67.37957"
                            y2="62.915672"
                            id="linearGradientSjsn91j43m"
                            gradientTransform="scale(1.2382537,0.80758892)"
                            gradientUnits="userSpaceOnUse">
                        <stop
                                offset="0%"
                                stop-color="#5accc2"
                                stop-opacity="0.53"
                                id="stop69"/>
                        <stop
                                offset="100%"
                                stop-color="#5accc2"
                                stop-opacity="0.53"
                                id="stop71"/>
                    </linearGradient>
                </defs>
                <g
                        id="g76"/>
                <g
                        id="g78"/>
                <g
                        id="g80"/>
                <g
                        id="g84">
                    <path
                            d="m 73.232,28.96 c -5.631,0 -10.194,4.567 -10.194,10.197 0,8.74 -4.368,13.108 -13.11,13.108 -8.737,0 -13.111,-4.369 -13.111,-13.108 0,-5.63 -4.563,-10.197 -10.194,-10.197 -5.631,0 -10.194,4.567 -10.194,10.197 0,5.631 4.563,10.198 10.194,10.198 8.742,0 13.111,4.369 13.111,13.111 0,5.631 4.563,10.194 10.195,10.194 5.63,0 10.2,-4.563 10.2,-10.194 0,-8.742 4.368,-13.111 13.104,-13.111 5.637,0 10.2,-4.567 10.2,-10.198 0,-5.63 -4.564,-10.197 -10.201,-10.197 z"
                            style="clip-rule:evenodd;fill:url(#linearGradientSjsn91j43m);fill-rule:evenodd;stroke:none"
                            id="path82"/>
                </g>
            </svg>
        </g>
    </g>
</svg>
